<?xml version="1.0" encoding="UTF-8" standalone="no"?>
<svg width="276px" height="62px" viewBox="0 0 276 62" version="1.1" xmlns="http://www.w3.org/2000/svg" xmlns:xlink="http://www.w3.org/1999/xlink" xmlns:sketch="http://www.bohemiancoding.com/sketch/ns">
    <!-- Generator: Sketch 3.3.3 (12072) - http://www.bohemiancoding.com/sketch -->
    <title>Fill 2 Copy 3 + Fill 2 Copy 5</title>
    <desc>Created with Sketch.</desc>
    <defs></defs>
    <g id="design-v-9" stroke="none" stroke-width="1" fill="none" fill-rule="evenodd" sketch:type="MSPage">
        <g id="10_14_HomePage" sketch:type="MSArtboardGroup" transform="translate(-583.000000, -2340.000000)">
            <g id="Fill-2-Copy-3-+-Fill-2-Copy-5-+-LATEST-Copy-Copy-Copy-Copy" sketch:type="MSLayerGroup" transform="translate(583.000000, 2340.000000)">
                <g id="Fill-2-Copy-3-+-Fill-2-Copy-5" sketch:type="MSShapeGroup">
                    <path d="M75.0484995,54.5947185 C75.2610482,55.705929 75.8616159,53.0873374 76.0741646,52.2949961 C92.4811504,50.8745793 109.761832,49.9925128 127.132337,49.9925128 C165.717502,49.9925128 194.855478,50.7848542 230.478017,49.4182724 C235.211012,49.2402027 240.251603,50.6040237 244.627913,48.2697916 C247.727886,46.6119484 251.531307,45.8113248 255.289816,45.3930679 C260.681347,44.7912198 265.904197,44.8616194 271.694713,42.519105 C272.944939,42.7648137 271.758426,39.1620072 272.104144,39.0653802 C273.330868,38.0949691 274.815576,37.8492604 276,36.7656577 C275.598403,30.2364337 273.536106,32.5541012 271.898384,32.7404532 C268.789533,33.0883104 264.950078,30.0197131 261.851671,31.0122104 C261.408295,29.8720119 262.519084,28.2914703 261.440674,27.5640071 C253.570104,26.82274 248.351955,24.5064529 240.526297,25.2615239 C240.911705,22.5117957 243.264886,25.2808493 244.011678,23.5388026 C239.130891,23.0887969 233.490778,21.324664 228.428776,20.0850778 C226.545082,19.6267897 224.61961,20.902266 222.686305,20.6620789 C210.20442,19.1063843 197.250959,18.3540742 183.520939,17.2111149 C171.34456,16.202053 159.707648,16.5775179 148.047236,14.9113924 C142.480235,17.6072855 136.645851,16.2669311 131.642339,15.4828721 C118.123822,17.6473167 101.901707,15.8141646 85.916685,17.7825945 C76.2355345,18.9793889 66.5157389,19.7399813 57.0043141,20.0850778 C51.8927001,20.2714298 46.6964844,22.3848002 41.4198448,24.113043 C38.6279886,25.0240975 35.8763444,24.8032358 33.2171353,25.2615239 C29.9119243,25.8302427 26.9832431,24.9868271 24.1950426,28.7152487 C17.9381722,28.2486784 13.4657711,31.222029 5.94561968,31.0122104 C4.40607758,36.0920295 1.34840492,36.9064571 0,42.519105 C0.564533586,46.3041224 2.48164995,46.2903186 3.48485904,48.8412712 C6.15451277,48.9378982 8.99232545,50.7738111 11.4823311,52.2949961 C13.021351,53.2364191 14.2893321,51.4101689 15.9928553,51.1465152 C19.3179111,50.6288706 23.4534721,51.6213679 26.6558032,51.7179949 C31.96221,51.8795 36.7432507,54.2951748 41.2140851,54.5947185 C52.0122914,53.0611101 63.307141,51.7635476 75.4589745,53.4434769 C75.2365033,53.587037 75.3195383,54.5864362 75.0484995,54.5947185" id="Fill-2-Copy-3" opacity="0.661497201" fill=" #ffe042"></path>
                    <path d="M84.7067741,0.417564964 C84.8859819,-1.29687399 85.3923428,2.74323868 85.5715506,3.96570819 C99.4048915,6.15720842 113.974878,7.51811089 128.620598,7.51811089 C161.153188,7.51811089 185.720501,6.29564138 215.755191,8.40408183 C219.745755,8.67881801 223.995665,6.57463703 227.685495,10.1760237 C230.299198,12.7338388 233.506004,13.9690868 236.674943,14.6143973 C241.220744,15.542963 245.624323,15.4343464 250.506523,19.0485115 C251.560634,18.6694182 250.560241,24.2280339 250.851729,24.3771156 C251.886026,25.8743213 253.137839,26.2534146 254.136471,27.9252588 C253.797869,37.9989187 252.05907,34.4230889 250.678245,34.1355743 C248.057057,33.5988804 244.819869,38.3332876 242.207487,36.8020061 C241.833661,38.5611695 242.770208,40.9997193 241.86096,42.1220912 C235.22499,43.2657604 230.825373,46.8394605 224.22727,45.6744939 C224.552222,49.9169316 226.536276,45.6446775 227.165925,48.3324067 C223.050751,49.0267012 218.295362,51.7485062 214.027399,53.6610107 C212.439187,54.3680837 210.81575,52.4002059 209.185708,52.7707803 C198.661766,55.1709949 187.740221,56.331702 176.163929,58.0951249 C165.89757,59.6519633 156.086056,59.0726746 146.254728,61.6432681 C141.560982,57.4838901 136.641796,59.5518656 132.423148,60.7615567 C121.025183,57.4221277 107.347714,60.2504196 93.8701461,57.2134134 C85.7076075,55.3669307 77.5124857,54.1934452 69.4930491,53.6610107 C65.1832569,53.3734961 60.8021339,50.1128675 56.3532025,47.4464357 C53.9992845,46.0408088 51.6792707,46.3815668 49.4371925,45.6744939 C46.650446,44.7970419 44.1811658,46.0983117 41.83033,40.3458898 C36.5549295,41.0657412 32.7840815,36.4782859 26.4435617,36.8020061 C25.1455164,28.9645708 22.5674787,27.7080255 21.4305882,19.0485115 C21.9065675,13.2087704 23.5229598,13.2300678 24.3688027,9.29431224 C26.6196872,9.14523059 29.0123528,6.31267928 31.1117694,3.96570819 C32.4093744,2.51322699 33.4784565,5.33087014 34.9147603,5.73765007 C37.7182387,6.53630175 41.2050843,5.00502025 43.905089,4.8559386 C48.3791183,4.60675928 52.4101918,0.879718073 56.1797188,0.417564964 C65.2840888,2.78370369 74.8071973,4.78565726 85.0528608,2.19376632 C84.8652871,1.97227358 84.935297,0.430343391 84.7067741,0.417564964" id="Fill-2-Copy-5" opacity="0.557077892" fill="#ffe042c0"></path>
                </g>
            </g>
        </g>
    </g>
</svg>
